<?xml version="1.0" encoding="utf-8"?>
<!-- Generator: Adobe Illustrator 15.0.0, SVG Export Plug-In  -->
<!DOCTYPE svg PUBLIC "-//W3C//DTD SVG 1.1//EN" "http://www.w3.org/Graphics/SVG/1.1/DTD/svg11.dtd" [
	<!ENTITY ns_flows "http://ns.adobe.com/Flows/1.0/">
]>
<svg version="1.1"
	 xmlns="http://www.w3.org/2000/svg" xmlns:xlink="http://www.w3.org/1999/xlink" xmlns:a="http://ns.adobe.com/AdobeSVGViewerExtensions/3.0/"
	 x="0px" y="0px" width="303px" height="140px" viewBox="-0.203 -2.307 303 140" enable-background="new -0.203 -2.307 303 140"
	 xml:space="preserve">
<defs>
</defs>
<path fill-rule="evenodd" clip-rule="evenodd" fill="#2F71A7" d="M59.467,53.638c-3.646-0.757-6.095-4.126-6.607-6.605
	c0.401-5.264,6.521-7.722,7.55-13.215c5.42-28.894-41.985-22.162-28.315,5.665c9.419,19.174,38.393,40.833,48.491,56.094
	c4.227-4.775,7.468-12.486,10.032-17.396c4.524,0.191,7.371,1.413,10.382,3.775c-1.888,9.127-6.234,15.79-10.382,22.654
	c4.835,9.011,8.816,10.116,15.099,26.429c-2.057,2.978-8.734,3.203-13.213,1.889c-3.524-4.972-6.249-10.741-10.379-15.103
	C56.81,144.449-0.252,134.68,0.001,94.229c0.122-19.594,12.06-29.475,25.482-37.755c-6.11-8.135-12.073-15.182-11.327-28.319
	C15.693,1.236,54.761-10.28,70.792,11.165C80.503,24.153,76.028,47.702,59.467,53.638z M33.981,66.856
	c-6.958,6.265-15.184,11.337-16.989,20.765c-6.156,32.078,38.729,39.463,53.799,18.88C59.065,92.742,46.933,79.388,33.981,66.856z"
	/>
<path fill="#2F71A7" d="M124.083,128.408c0,2.919-2.367,5.287-5.281,5.287c-2.921,0-5.289-2.368-5.289-5.287
	c0-2.918,2.367-5.282,5.289-5.282C121.716,123.126,124.083,125.49,124.083,128.408z"/>
<g>
	<g>
		<path d="M159.047,119.411c0.285,0,0.559,0.056,0.816,0.167c0.26,0.112,0.485,0.262,0.681,0.45c0.193,0.188,0.347,0.41,0.459,0.664
			c0.11,0.255,0.167,0.525,0.167,0.813c0,0.293-0.057,0.57-0.167,0.828c-0.112,0.258-0.266,0.485-0.459,0.68
			c-0.195,0.194-0.42,0.348-0.675,0.46c-0.255,0.111-0.526,0.167-0.812,0.167h-1.025c-0.04,0-0.059,0.02-0.059,0.058v2.277
			c0,0.031-0.015,0.062-0.042,0.091c-0.029,0.027-0.061,0.042-0.092,0.042h-0.881c-0.038,0-0.07-0.015-0.094-0.042
			c-0.027-0.029-0.039-0.06-0.039-0.091v-6.43c0-0.033,0.012-0.063,0.039-0.091c0.023-0.029,0.056-0.044,0.094-0.044H159.047z
			 M158.96,122.56c0.141,0,0.273-0.027,0.401-0.082c0.127-0.055,0.239-0.129,0.334-0.225c0.098-0.096,0.174-0.206,0.231-0.334
			c0.057-0.128,0.086-0.269,0.086-0.423c0-0.14-0.029-0.271-0.086-0.391c-0.058-0.123-0.134-0.225-0.231-0.312
			c-0.095-0.087-0.207-0.153-0.334-0.205c-0.128-0.052-0.261-0.078-0.401-0.078h-0.928c-0.04,0-0.059,0.021-0.059,0.059v1.932
			c0,0.04,0.019,0.059,0.059,0.059H158.96z"/>
		<path d="M169.026,125.085c0.024,0.033,0.039,0.063,0.039,0.096v0.795c0,0.031-0.015,0.062-0.039,0.091
			c-0.025,0.027-0.058,0.042-0.096,0.042h-3.732c-0.038,0-0.07-0.015-0.096-0.042c-0.025-0.029-0.038-0.06-0.038-0.091v-6.43
			c0-0.033,0.013-0.063,0.038-0.091c0.025-0.029,0.058-0.044,0.096-0.044h0.881c0.032,0,0.062,0.015,0.092,0.044
			c0.029,0.028,0.042,0.058,0.042,0.091v5.434c0,0.038,0.02,0.058,0.057,0.058h2.661
			C168.969,125.037,169.001,125.053,169.026,125.085z"/>
		<path d="M179.113,125.927c0.018,0.052,0.015,0.095-0.011,0.13s-0.063,0.052-0.116,0.052h-0.843c-0.114,0-0.192-0.054-0.236-0.162
			l-0.059-0.135c-0.032-0.069-0.078-0.174-0.138-0.31c-0.062-0.138-0.15-0.34-0.265-0.608c-0.012-0.02-0.029-0.028-0.047-0.028
			h-2.919c-0.026,0-0.041,0.009-0.047,0.028l-0.479,1.053c-0.02,0.045-0.046,0.084-0.081,0.114c-0.035,0.031-0.086,0.048-0.15,0.048
			h-0.842c-0.049,0-0.087-0.017-0.113-0.048c-0.026-0.03-0.026-0.073,0-0.123c0,0.006,0.006-0.002,0.015-0.025
			c0.009-0.022,0.041-0.096,0.095-0.22c0.055-0.125,0.143-0.317,0.264-0.583c0.121-0.265,0.293-0.641,0.517-1.124
			c0.223-0.485,0.506-1.099,0.853-1.843c0.344-0.743,0.769-1.657,1.271-2.74c0.024-0.052,0.063-0.077,0.116-0.077h0.095
			c0.044,0,0.075,0.008,0.09,0.023c0.018,0.017,0.031,0.034,0.044,0.054c0.02,0.038,0.057,0.116,0.11,0.239
			c0.055,0.119,0.143,0.313,0.263,0.578c0.12,0.265,0.293,0.641,0.513,1.123c0.22,0.486,0.5,1.1,0.843,1.844
			C178.194,123.93,178.613,124.844,179.113,125.927z M176.91,123.898c0.014,0,0.028-0.01,0.043-0.029
			c0.016-0.019,0.018-0.033,0.006-0.047l-0.967-2.134c-0.013-0.02-0.03-0.029-0.052-0.029c-0.022,0-0.04,0.01-0.054,0.029
			l-0.966,2.134c-0.014,0.014-0.015,0.028-0.006,0.047c0.012,0.02,0.027,0.029,0.053,0.029H176.91z"/>
		<path d="M188.761,119.455c0.029,0.028,0.044,0.058,0.044,0.091v6.534c0,0.031-0.015,0.061-0.044,0.086
			c-0.028,0.025-0.06,0.038-0.092,0.038h-0.152c-0.103,0-0.19-0.038-0.267-0.114l-3.828-4.22c-0.006-0.014-0.026-0.02-0.058-0.02
			c-0.025,0.014-0.039,0.032-0.039,0.058l-0.009,4.067c0,0.031-0.012,0.062-0.038,0.091c-0.026,0.027-0.058,0.042-0.096,0.042
			h-0.881c-0.031,0-0.063-0.015-0.092-0.042c-0.027-0.029-0.04-0.06-0.04-0.091v-6.535c0-0.032,0.013-0.061,0.04-0.087
			c0.029-0.025,0.061-0.038,0.092-0.038h0.173c0.097,0,0.18,0.038,0.25,0.114l3.815,4.144c0.015,0.026,0.032,0.032,0.059,0.019
			c0.02-0.006,0.029-0.021,0.029-0.047l0.009-3.999c0-0.033,0.012-0.063,0.039-0.091c0.026-0.029,0.057-0.044,0.097-0.044h0.896
			C188.701,119.411,188.732,119.426,188.761,119.455z"/>
		<path d="M198.952,119.455c0.028,0.028,0.043,0.058,0.043,0.091v6.534c0,0.031-0.015,0.061-0.043,0.086s-0.06,0.038-0.092,0.038
			h-0.153c-0.102,0-0.19-0.038-0.267-0.114l-3.827-4.22c-0.006-0.014-0.026-0.02-0.058-0.02c-0.025,0.014-0.04,0.032-0.04,0.058
			l-0.009,4.067c0,0.031-0.012,0.062-0.038,0.091c-0.026,0.027-0.058,0.042-0.095,0.042h-0.881c-0.031,0-0.063-0.015-0.092-0.042
			c-0.028-0.029-0.041-0.06-0.041-0.091v-6.535c0-0.032,0.013-0.061,0.041-0.087c0.029-0.025,0.061-0.038,0.092-0.038h0.173
			c0.097,0,0.178,0.038,0.249,0.114l3.816,4.144c0.015,0.026,0.032,0.032,0.059,0.019c0.02-0.006,0.028-0.021,0.028-0.047
			l0.009-3.999c0-0.033,0.012-0.063,0.039-0.091c0.026-0.029,0.057-0.044,0.097-0.044h0.897
			C198.893,119.411,198.924,119.426,198.952,119.455z"/>
		<path d="M203.514,119.546c0-0.033,0.015-0.063,0.041-0.091c0.028-0.029,0.06-0.044,0.092-0.044h0.89
			c0.032,0,0.063,0.015,0.092,0.044c0.029,0.028,0.042,0.058,0.042,0.091v6.43c0,0.031-0.013,0.062-0.042,0.091
			c-0.029,0.027-0.06,0.042-0.092,0.042h-0.89c-0.032,0-0.063-0.015-0.092-0.042c-0.026-0.029-0.041-0.06-0.041-0.091V119.546z"/>
		<path d="M214.874,119.455c0.029,0.028,0.044,0.058,0.044,0.091v6.534c0,0.031-0.015,0.061-0.044,0.086
			c-0.028,0.025-0.059,0.038-0.092,0.038h-0.151c-0.104,0-0.19-0.038-0.268-0.114l-3.828-4.22c-0.006-0.014-0.026-0.02-0.058-0.02
			c-0.024,0.014-0.038,0.032-0.038,0.058l-0.009,4.067c0,0.031-0.013,0.062-0.039,0.091c-0.026,0.027-0.058,0.042-0.096,0.042
			h-0.881c-0.031,0-0.062-0.015-0.092-0.042c-0.026-0.029-0.04-0.06-0.04-0.091v-6.535c0-0.032,0.014-0.061,0.04-0.087
			c0.03-0.025,0.061-0.038,0.092-0.038h0.173c0.097,0,0.18,0.038,0.25,0.114l3.815,4.144c0.015,0.026,0.032,0.032,0.06,0.019
			c0.019-0.006,0.029-0.021,0.029-0.047l0.009-3.999c0-0.033,0.012-0.063,0.038-0.091c0.026-0.029,0.058-0.044,0.096-0.044h0.897
			C214.815,119.411,214.846,119.426,214.874,119.455z"/>
		<path d="M224.783,122.894c0.031,0.039,0.048,0.083,0.048,0.134v2.393c0,0.032-0.01,0.064-0.028,0.097
			c-0.02,0.029-0.034,0.054-0.047,0.065h-0.011c-0.012,0.007-0.081,0.042-0.206,0.105c-0.123,0.063-0.291,0.133-0.501,0.21
			c-0.211,0.078-0.457,0.146-0.736,0.207c-0.281,0.06-0.583,0.091-0.909,0.091c-0.478,0-0.925-0.09-1.34-0.269
			c-0.414-0.179-0.778-0.421-1.092-0.727c-0.312-0.307-0.558-0.668-0.736-1.087c-0.179-0.417-0.268-0.866-0.268-1.345
			c0-0.477,0.089-0.928,0.268-1.349s0.425-0.785,0.736-1.096c0.313-0.31,0.678-0.555,1.092-0.736
			c0.415-0.182,0.862-0.272,1.34-0.272c0.44,0,0.856,0.076,1.248,0.23c0.392,0.151,0.752,0.369,1.076,0.649
			c0.031,0.026,0.054,0.062,0.063,0.105c0.009,0.044-0.006,0.083-0.044,0.114l-0.076,0.076c-0.039,0.04-0.101,0.101-0.182,0.182
			c-0.083,0.084-0.198,0.202-0.345,0.355c-0.058,0.063-0.119,0.063-0.183,0c-0.217-0.185-0.453-0.326-0.708-0.421
			c-0.256-0.097-0.519-0.144-0.795-0.144c-0.305,0-0.594,0.06-0.865,0.182c-0.27,0.12-0.508,0.287-0.707,0.497
			c-0.202,0.211-0.36,0.454-0.476,0.731c-0.114,0.277-0.172,0.574-0.172,0.886c0,0.306,0.058,0.598,0.172,0.877
			c0.115,0.277,0.273,0.517,0.476,0.721c0.199,0.204,0.438,0.366,0.707,0.489c0.271,0.121,0.563,0.182,0.878,0.182
			c0.272,0,0.509-0.03,0.711-0.086c0.2-0.058,0.355-0.109,0.465-0.153c0.019-0.008,0.028-0.022,0.028-0.049v-0.812
			c0-0.04-0.018-0.06-0.049-0.06h-0.986c-0.068,0-0.122-0.021-0.156-0.066c-0.035-0.044-0.053-0.086-0.053-0.124v-0.651
			c0-0.051,0.018-0.095,0.053-0.134c0.034-0.038,0.08-0.057,0.139-0.057h2.039C224.707,122.837,224.753,122.855,224.783,122.894z"/>
	</g>
</g>
<path d="M167.865,24.509c0.023,0.051,0.023,0.094-0.005,0.129c-0.027,0.037-0.064,0.055-0.118,0.055H166.9
	c-0.114,0-0.193-0.056-0.241-0.163l-0.053-0.136c-0.035-0.066-0.078-0.171-0.141-0.31c-0.062-0.138-0.144-0.339-0.257-0.609
	c-0.021-0.019-0.032-0.026-0.058-0.026h-2.914c-0.03,0-0.045,0.007-0.049,0.026l-0.482,1.055c-0.014,0.044-0.039,0.083-0.077,0.114
	c-0.035,0.031-0.088,0.049-0.149,0.049h-0.841c-0.051,0-0.089-0.018-0.112-0.049c-0.021-0.031-0.021-0.07,0-0.125
	c0,0.007,0.003,0,0.011-0.025c0.013-0.022,0.045-0.092,0.099-0.22c0.049-0.122,0.14-0.32,0.263-0.584
	c0.118-0.264,0.291-0.641,0.514-1.123c0.229-0.486,0.505-1.1,0.853-1.84c0.348-0.745,0.772-1.66,1.277-2.746
	c0.023-0.048,0.056-0.072,0.114-0.072h0.095c0.047,0,0.072,0.003,0.092,0.022c0.009,0.015,0.024,0.034,0.038,0.05
	c0.022,0.04,0.056,0.117,0.114,0.241c0.051,0.122,0.136,0.313,0.26,0.576c0.12,0.267,0.292,0.644,0.512,1.127
	c0.223,0.487,0.499,1.098,0.843,1.84C166.951,22.511,167.37,23.427,167.865,24.509z M165.666,22.483
	c0.016,0,0.025-0.012,0.043-0.031c0.02-0.02,0.02-0.036,0.006-0.046l-0.964-2.133c-0.015-0.023-0.035-0.028-0.052-0.028
	c-0.029,0-0.043,0.004-0.058,0.028l-0.967,2.133c-0.01,0.01-0.01,0.026,0,0.046c0.005,0.019,0.021,0.031,0.048,0.031H165.666z"/>
<path d="M171.421,21.354c0-0.481,0.089-0.928,0.271-1.351c0.185-0.421,0.424-0.787,0.738-1.1c0.309-0.307,0.676-0.55,1.095-0.73
	c0.422-0.186,0.868-0.277,1.346-0.277c0.496,0,0.921,0.077,1.287,0.228c0.37,0.149,0.714,0.37,1.039,0.664
	c0.062,0.072,0.062,0.137,0,0.201l-0.595,0.611c-0.052,0.059-0.112,0.056-0.17-0.01c-0.21-0.183-0.447-0.324-0.707-0.424
	c-0.267-0.1-0.545-0.148-0.823-0.148c-0.321,0-0.618,0.063-0.891,0.184c-0.271,0.12-0.501,0.286-0.694,0.496
	c-0.193,0.209-0.352,0.455-0.461,0.736c-0.108,0.277-0.165,0.579-0.165,0.887c0,0.315,0.057,0.61,0.165,0.887
	c0.109,0.277,0.268,0.522,0.467,0.728c0.197,0.208,0.433,0.37,0.703,0.493c0.27,0.119,0.566,0.181,0.887,0.181
	c0.298,0,0.572-0.051,0.822-0.154c0.254-0.101,0.487-0.233,0.697-0.399c0.032-0.035,0.062-0.05,0.097-0.045
	c0.032,0.006,0.056,0.019,0.073,0.045v-0.01l0.614,0.622c0.026,0.031,0.033,0.064,0.026,0.1c0,0.037-0.018,0.064-0.046,0.091h0.011
	c-0.33,0.319-0.688,0.553-1.081,0.701c-0.401,0.151-0.821,0.225-1.256,0.225c-0.478,0-0.924-0.088-1.346-0.266
	c-0.419-0.179-0.786-0.421-1.095-0.733c-0.314-0.308-0.554-0.673-0.738-1.091C171.51,22.275,171.421,21.828,171.421,21.354z"/>
<path d="M187.277,24.509c0.014,0.051,0.014,0.094-0.014,0.129c-0.024,0.037-0.063,0.055-0.11,0.055h-0.845
	c-0.114,0-0.195-0.056-0.237-0.163l-0.063-0.136c-0.029-0.066-0.076-0.171-0.138-0.31c-0.06-0.138-0.149-0.339-0.262-0.609
	c-0.016-0.019-0.029-0.026-0.044-0.026h-2.925c-0.023,0-0.04,0.007-0.045,0.026l-0.478,1.055c-0.025,0.044-0.048,0.083-0.083,0.114
	c-0.036,0.031-0.083,0.049-0.15,0.049h-0.846c-0.044,0-0.085-0.018-0.108-0.049c-0.027-0.031-0.027-0.07,0-0.125
	c0,0.007,0.001,0,0.015-0.025c0.009-0.022,0.038-0.092,0.091-0.22c0.063-0.122,0.144-0.32,0.265-0.584
	c0.123-0.264,0.293-0.641,0.521-1.123c0.22-0.486,0.507-1.1,0.846-1.84c0.349-0.745,0.771-1.66,1.276-2.746
	c0.023-0.048,0.062-0.072,0.112-0.072h0.102c0.042,0,0.074,0.003,0.089,0.022c0.015,0.015,0.03,0.034,0.044,0.05
	c0.021,0.04,0.055,0.117,0.108,0.241c0.056,0.122,0.141,0.313,0.26,0.576c0.126,0.267,0.295,0.644,0.517,1.127
	c0.22,0.487,0.503,1.098,0.834,1.84C186.354,22.511,186.777,23.427,187.277,24.509z M185.076,22.483c0.009,0,0.027-0.012,0.04-0.031
	c0.021-0.02,0.021-0.036,0.008-0.046l-0.967-2.133c-0.013-0.023-0.038-0.028-0.059-0.028c-0.018,0-0.041,0.004-0.052,0.028
	l-0.963,2.133c-0.013,0.01-0.013,0.026-0.006,0.046c0.012,0.019,0.031,0.031,0.057,0.031H185.076z"/>
<path d="M193.733,17.994c0.459,0,0.892,0.086,1.299,0.261c0.407,0.178,0.771,0.415,1.071,0.72c0.309,0.302,0.552,0.658,0.729,1.06
	c0.172,0.405,0.262,0.837,0.262,1.297c0,0.465-0.09,0.903-0.262,1.308c-0.177,0.409-0.42,0.768-0.729,1.069
	c-0.301,0.304-0.664,0.543-1.071,0.72c-0.407,0.173-0.84,0.263-1.299,0.263h-2.096c-0.038,0-0.06-0.013-0.088-0.046
	c-0.023-0.026-0.038-0.058-0.038-0.088v-6.433c0-0.03,0.015-0.062,0.038-0.088c0.028-0.03,0.05-0.044,0.088-0.044H193.733z
	 M193.612,23.601c0.329,0,0.628-0.057,0.9-0.172c0.274-0.115,0.508-0.271,0.702-0.474c0.198-0.202,0.351-0.44,0.466-0.719
	c0.108-0.278,0.165-0.579,0.165-0.903c0-0.323-0.057-0.625-0.165-0.899c-0.115-0.273-0.268-0.511-0.466-0.714
	c-0.194-0.198-0.428-0.358-0.702-0.474c-0.272-0.114-0.571-0.17-0.9-0.17h-0.913c-0.041,0-0.058,0.019-0.058,0.056v4.413
	c0,0.037,0.017,0.057,0.058,0.057H193.612z"/>
<path d="M202.682,19.121v1.573c0,0.034,0.012,0.054,0.056,0.054h2.21c0.036,0,0.059,0.013,0.091,0.044
	c0.029,0.028,0.041,0.059,0.041,0.089v0.816c0,0.038-0.012,0.069-0.041,0.095c-0.032,0.023-0.055,0.035-0.091,0.035h-2.21
	c-0.044,0-0.056,0.022-0.056,0.062v1.669c0,0.042,0.012,0.061,0.056,0.061h2.683c0.032,0,0.069,0.013,0.095,0.049
	c0.026,0.031,0.034,0.063,0.034,0.094v0.796c0,0.03-0.008,0.062-0.034,0.088c-0.025,0.033-0.063,0.046-0.095,0.046h-3.754
	c-0.038,0-0.069-0.013-0.099-0.046c-0.022-0.026-0.034-0.058-0.034-0.088v-6.433c0-0.03,0.012-0.062,0.034-0.088
	c0.029-0.03,0.061-0.044,0.099-0.044h3.754c0.032,0,0.069,0.014,0.095,0.044c0.026,0.026,0.034,0.059,0.034,0.088v0.792
	c0,0.033-0.008,0.068-0.034,0.1c-0.025,0.034-0.063,0.047-0.095,0.047h-2.683C202.693,19.064,202.682,19.085,202.682,19.121z"/>
<path d="M216.574,24.692h-0.891c-0.036,0-0.062-0.013-0.084-0.04c-0.028-0.025-0.044-0.052-0.053-0.077l-0.573-3.653
	c0-0.028-0.013-0.045-0.038-0.05c-0.024-0.004-0.038,0.004-0.056,0.028l-1.734,3.81c-0.026,0.051-0.064,0.075-0.116,0.075h-0.171
	c-0.046,0-0.089-0.023-0.114-0.075c-0.008-0.007-0.017-0.018-0.017-0.028c-0.009-0.012-0.023-0.056-0.059-0.131
	c-0.035-0.07-0.083-0.184-0.147-0.334c-0.067-0.15-0.161-0.365-0.294-0.644c-0.125-0.283-0.284-0.638-0.48-1.069
	c-0.198-0.431-0.438-0.964-0.715-1.604c-0.015-0.023-0.029-0.032-0.053-0.028c-0.03,0.004-0.043,0.022-0.054,0.05l-0.592,3.662
	c-0.009,0.029-0.021,0.049-0.042,0.076c-0.025,0.02-0.054,0.033-0.081,0.033h-0.866c-0.039,0-0.067-0.018-0.1-0.055
	c-0.032-0.035-0.044-0.076-0.029-0.119l1.118-6.518c0.014-0.067,0.052-0.106,0.119-0.106h0.281c0.063,0,0.096,0.023,0.125,0.071
	l2.027,4.572c0.035,0.059,0.073,0.059,0.111,0c0.328-0.76,0.623-1.399,0.855-1.924c0.235-0.521,0.434-0.953,0.584-1.291
	c0.146-0.337,0.262-0.6,0.341-0.779c0.09-0.183,0.148-0.318,0.187-0.403c0.04-0.084,0.061-0.136,0.073-0.147
	c0.007-0.013,0.007-0.023,0.007-0.028c0.025-0.047,0.066-0.071,0.129-0.071h0.267c0.073,0,0.115,0.039,0.127,0.106
	c0.14,0.82,0.269,1.537,0.371,2.159c0.108,0.622,0.203,1.161,0.281,1.624c0.077,0.459,0.142,0.842,0.194,1.159
	c0.051,0.31,0.103,0.571,0.141,0.774l0.145,0.823C216.714,24.641,216.676,24.692,216.574,24.692z"/>
<path d="M222.039,21.468c0-0.021,0-0.029-0.011-0.029l-2.22-3.244c-0.023-0.046-0.018-0.088,0.006-0.135
	c0.02-0.047,0.058-0.066,0.111-0.066h0.994c0.022,0,0.044,0.006,0.064,0.021c0.022,0.021,0.031,0.034,0.048,0.045l1.541,2.23
	c0.038,0.039,0.072,0.039,0.096,0l1.542-2.23c0.009-0.012,0.029-0.025,0.05-0.045c0.024-0.015,0.048-0.021,0.072-0.021h0.999
	c0.047,0,0.088,0.019,0.108,0.066c0.018,0.047,0.023,0.089,0.006,0.135l-2.253,3.234c-0.003,0-0.003,0.01-0.003,0.026v3.104
	c0,0.03-0.025,0.062-0.051,0.088c-0.03,0.033-0.059,0.046-0.093,0.046h-0.876c-0.036,0-0.068-0.013-0.099-0.046
	c-0.023-0.026-0.033-0.058-0.033-0.088V21.468z"/>
<path d="M239.538,19.265c0.032-0.031,0.068-0.064,0.112-0.1c0.046-0.035,0.104-0.024,0.176,0.036c0.085,0.074,0.177,0.19,0.267,0.35
	c0.09,0.162,0.168,0.342,0.241,0.544c0.078,0.2,0.134,0.411,0.183,0.632c0.037,0.229,0.065,0.438,0.065,0.641
	c0,0.481-0.093,0.927-0.269,1.347c-0.182,0.418-0.423,0.782-0.737,1.089c-0.311,0.313-0.68,0.553-1.097,0.735
	c-0.418,0.175-0.865,0.266-1.342,0.266c-0.479,0-0.929-0.091-1.348-0.266c-0.414-0.182-0.781-0.422-1.086-0.735
	c-0.313-0.308-0.56-0.671-0.738-1.089c-0.173-0.419-0.269-0.865-0.269-1.347c0-0.474,0.096-0.928,0.269-1.35
	c0.179-0.419,0.425-0.785,0.738-1.092c0.305-0.31,0.672-0.555,1.086-0.737c0.419-0.182,0.869-0.273,1.348-0.273
	c0.552,0,1.058,0.118,1.53,0.355c0.097,0.047,0.12,0.129,0.079,0.236c-0.015,0.019-0.041,0.065-0.076,0.135
	c-0.036,0.072-0.074,0.146-0.119,0.228c-0.047,0.078-0.085,0.154-0.128,0.223c-0.041,0.07-0.073,0.113-0.079,0.135
	c-0.025,0.051-0.071,0.076-0.123,0.082c-0.059,0-0.118-0.009-0.177-0.035c-0.289-0.125-0.59-0.19-0.907-0.19
	c-0.318,0-0.605,0.059-0.88,0.18c-0.277,0.121-0.521,0.286-0.725,0.493c-0.207,0.207-0.375,0.449-0.488,0.729
	c-0.118,0.274-0.174,0.572-0.174,0.881c0,0.314,0.056,0.609,0.174,0.88c0.113,0.276,0.281,0.518,0.488,0.725
	c0.203,0.209,0.447,0.37,0.725,0.488c0.274,0.119,0.562,0.177,0.88,0.177c0.31,0,0.604-0.058,0.885-0.177
	c0.274-0.119,0.517-0.279,0.725-0.488c0.195-0.207,0.363-0.449,0.481-0.725c0.119-0.271,0.183-0.566,0.183-0.88
	c0-0.119-0.01-0.243-0.034-0.377c-0.029-0.13-0.059-0.254-0.1-0.378c-0.032-0.12-0.083-0.233-0.13-0.336
	c-0.052-0.1-0.104-0.179-0.156-0.238c-0.031-0.031-0.052-0.067-0.06-0.099c-0.007-0.036-0.004-0.068,0.011-0.089
	c0.015-0.027,0.029-0.052,0.049-0.078c0.099-0.085,0.177-0.162,0.254-0.229c0.056-0.057,0.12-0.114,0.177-0.173
	C239.477,19.313,239.521,19.28,239.538,19.265z"/>
<path d="M237.356,18.184c0-0.045,0-0.094,0.006-0.152c0.005-0.057,0.056-0.088,0.146-0.098c0.116-0.009,0.265,0.012,0.441,0.062
	c0.176,0.051,0.361,0.121,0.555,0.21c0.196,0.088,0.384,0.198,0.572,0.322c0.192,0.129,0.356,0.261,0.507,0.408
	c0.337,0.34,0.59,0.72,0.76,1.142c0.174,0.42,0.248,0.848,0.245,1.29c0,0.441-0.081,0.868-0.254,1.295
	c-0.17,0.42-0.423,0.799-0.762,1.138c-0.339,0.338-0.72,0.593-1.138,0.76c-0.425,0.169-0.853,0.254-1.29,0.254
	c-0.437,0-0.869-0.085-1.293-0.254c-0.42-0.167-0.8-0.422-1.139-0.758c-0.337-0.34-0.589-0.719-0.762-1.145
	c-0.171-0.423-0.257-0.857-0.257-1.291c0-0.44,0.083-0.871,0.252-1.295c0.162-0.422,0.415-0.805,0.758-1.141
	c0.386-0.389,0.829-0.667,1.331-0.833c0.101-0.032,0.174,0.011,0.223,0.116c0.008,0.022,0.017,0.075,0.042,0.144
	c0.026,0.077,0.054,0.157,0.076,0.245c0.023,0.088,0.044,0.169,0.064,0.25c0.021,0.079,0.035,0.127,0.045,0.154
	c0.015,0.051,0.001,0.098-0.03,0.146c-0.041,0.041-0.094,0.076-0.155,0.095c-0.287,0.116-0.545,0.283-0.77,0.508
	c-0.225,0.22-0.39,0.474-0.497,0.751c-0.109,0.281-0.162,0.569-0.162,0.862c0,0.291,0.056,0.577,0.168,0.858
	c0.113,0.28,0.28,0.528,0.503,0.75c0.217,0.224,0.465,0.39,0.745,0.497c0.279,0.112,0.563,0.168,0.86,0.168
	c0.288,0,0.571-0.057,0.849-0.168c0.28-0.107,0.534-0.273,0.751-0.497c0.225-0.221,0.386-0.469,0.501-0.75
	c0.114-0.281,0.168-0.563,0.168-0.856c-0.005-0.291-0.057-0.575-0.171-0.855c-0.112-0.28-0.271-0.53-0.489-0.75
	c-0.085-0.088-0.188-0.166-0.292-0.241c-0.113-0.075-0.229-0.142-0.339-0.201c-0.111-0.06-0.225-0.105-0.335-0.142
	c-0.101-0.036-0.195-0.052-0.276-0.061c-0.043,0-0.081-0.009-0.108-0.028c-0.028-0.022-0.049-0.047-0.059-0.072
	c-0.008-0.028-0.014-0.056-0.018-0.088c0.004-0.128,0.013-0.241,0.013-0.341c0-0.083,0.005-0.167,0.005-0.25
	C237.347,18.255,237.354,18.209,237.356,18.184z"/>
<path d="M248.983,18.038c0.024,0.026,0.039,0.059,0.039,0.088v0.792c0,0.033-0.015,0.068-0.039,0.1
	c-0.022,0.034-0.052,0.047-0.099,0.047h-2.676c-0.041,0-0.058,0.021-0.058,0.056v1.802c0,0.037,0.017,0.059,0.058,0.059h2.212
	c0.028,0,0.059,0.013,0.087,0.044c0.031,0.034,0.043,0.063,0.043,0.096v0.796c0,0.031-0.012,0.063-0.043,0.091
	c-0.028,0.029-0.059,0.042-0.087,0.042h-2.212c-0.041,0-0.058,0.019-0.058,0.057v2.451c0,0.03-0.019,0.062-0.045,0.088
	c-0.032,0.033-0.059,0.046-0.091,0.046h-0.877c-0.038,0-0.072-0.013-0.099-0.046c-0.025-0.026-0.04-0.058-0.04-0.088v-6.433
	c0-0.03,0.015-0.062,0.04-0.088c0.026-0.03,0.061-0.044,0.099-0.044h3.746C248.932,17.994,248.961,18.008,248.983,18.038z"/>
<path d="M109.324,40.558l-4.166,24.338h-5.54L95.57,50.336l-4.52,14.559H85.51l-4.166-24.338h5.265l2.319,13.11l3.694-13.11h5.541
	l3.694,13.11l2.201-13.11H109.324z"/>
<path d="M141.375,64.896h-19.571V40.558h19.217v4.853h-14.029v3.984h7.938v4.853h-7.938v5.793h14.383V64.896z"/>
<path d="M176.334,52.726c0,3.695-1.187,6.646-3.558,8.856c-2.37,2.208-5.521,3.313-9.45,3.313h-8.213V40.558h8.213
	c3.956,0,7.112,1.111,9.471,3.333C175.154,46.111,176.334,49.056,176.334,52.726z M171.186,52.726c0-2.293-0.674-4.084-2.023-5.376
	c-1.349-1.293-3.203-1.938-5.563-1.938h-3.3v14.631h3.3c2.359,0,4.214-0.645,5.563-1.937
	C170.512,56.813,171.186,55.021,171.186,52.726z"/>
<path d="M211.018,52.726c0,3.695-1.186,6.646-3.557,8.856c-2.371,2.208-5.522,3.313-9.451,3.313h-8.215V40.558h8.215
	c3.956,0,7.113,1.111,9.471,3.333C209.838,46.111,211.018,49.056,211.018,52.726z M205.867,52.726c0-2.293-0.673-4.084-2.023-5.376
	c-1.349-1.293-3.201-1.938-5.558-1.938h-3.303v14.631h3.303c2.356,0,4.209-0.645,5.558-1.937
	C205.194,56.813,205.867,55.021,205.867,52.726z"/>
<path d="M230.61,64.896h-5.267V40.558h5.267V64.896z"/>
<path d="M266.433,64.896h-4.518l-11.514-15.574v15.574h-5.19V40.558h5.19l10.884,14.885V40.558h5.147V64.896z"/>
<path d="M302.021,52.944c0,3.838-0.955,6.863-2.869,9.072c-1.912,2.208-4.573,3.313-7.978,3.313c-3.641,0-6.457-1.207-8.449-3.622
	c-1.99-2.414-2.986-5.408-2.986-8.982c0-3.741,1.074-6.758,3.223-9.054c2.148-2.292,4.951-3.439,8.408-3.439
	c2.098,0,4.011,0.465,5.737,1.394c1.731,0.929,3.054,2.216,3.971,3.857l-4.637,2.318c-1.152-1.833-2.908-2.752-5.267-2.752
	c-1.887,0-3.386,0.694-4.498,2.083c-1.114,1.388-1.671,3.254-1.671,5.594c0,2.391,0.557,4.28,1.671,5.669
	c1.112,1.389,2.638,2.095,4.576,2.118c2.386-0.048,3.905-1.002,4.559-2.86h-4.637v-4.708H302.021z"/>
<path d="M133.094,102.223h-19.57V77.885h19.217v4.854h-14.029v3.983h7.938v4.854h-7.938v5.794h14.383V102.223z"/>
<path d="M168.917,77.885l-9.157,24.338h-5.539l-9.51-24.338h5.54l6.721,17.095l6.484-17.095H168.917z"/>
<path d="M200.104,102.223h-19.572V77.885h19.218v4.854h-14.028v3.983h7.938v4.854h-7.938v5.794h14.383V102.223z"/>
<path d="M235.259,102.223h-4.52l-11.514-15.575v15.575h-5.188V77.885h5.188l10.886,14.885V77.885h5.147V102.223z"/>
<path d="M268.686,82.738h-7.191v19.484h-5.109V82.738h-7.271v-4.854h19.571V82.738z"/>
<path d="M134.861,24.509c0.019,0.051,0.016,0.094-0.01,0.129c-0.025,0.036-0.063,0.053-0.115,0.053h-0.842
	c-0.115,0-0.195-0.055-0.24-0.163l-0.057-0.133c-0.033-0.071-0.079-0.174-0.14-0.311c-0.061-0.138-0.148-0.341-0.263-0.609
	c-0.013-0.019-0.029-0.027-0.048-0.027h-2.918c-0.026,0-0.042,0.008-0.047,0.027l-0.479,1.053c-0.019,0.046-0.046,0.083-0.082,0.114
	c-0.035,0.033-0.084,0.049-0.148,0.049h-0.842c-0.051,0-0.089-0.016-0.115-0.049c-0.025-0.031-0.025-0.073,0-0.123
	c0,0.006,0.005-0.001,0.015-0.025c0.009-0.022,0.041-0.095,0.095-0.22s0.142-0.318,0.264-0.584c0.121-0.264,0.292-0.64,0.517-1.123
	c0.223-0.486,0.506-1.1,0.852-1.843c0.345-0.744,0.769-1.657,1.272-2.741c0.026-0.051,0.064-0.077,0.115-0.077h0.096
	c0.044,0,0.075,0.007,0.091,0.024c0.016,0.016,0.03,0.034,0.043,0.053c0.019,0.038,0.056,0.117,0.109,0.239
	c0.055,0.12,0.143,0.313,0.264,0.579c0.121,0.264,0.292,0.639,0.512,1.124c0.22,0.485,0.501,1.098,0.842,1.842
	C133.944,22.511,134.363,23.425,134.861,24.509z M132.661,22.48c0.012,0,0.027-0.011,0.043-0.03
	c0.015-0.019,0.018-0.033,0.004-0.046l-0.966-2.134c-0.012-0.019-0.03-0.029-0.052-0.029c-0.023,0-0.041,0.01-0.053,0.029
	l-0.967,2.134c-0.013,0.013-0.015,0.028-0.005,0.046c0.011,0.019,0.027,0.03,0.053,0.03H132.661z"/>
<path d="M138.727,18.127c0-0.033,0.013-0.063,0.039-0.091c0.025-0.03,0.054-0.044,0.085-0.044h0.91c0.038,0,0.07,0.014,0.095,0.044
	c0.026,0.028,0.039,0.059,0.039,0.091v3.97c0,0.211,0.035,0.411,0.105,0.599c0.071,0.187,0.171,0.352,0.302,0.492
	c0.13,0.14,0.285,0.25,0.464,0.331c0.178,0.079,0.379,0.118,0.603,0.118c0.216,0,0.416-0.04,0.598-0.118
	c0.182-0.081,0.336-0.191,0.464-0.331c0.127-0.141,0.229-0.304,0.301-0.488c0.074-0.185,0.11-0.383,0.11-0.593v-3.98
	c0-0.033,0.013-0.063,0.038-0.091c0.026-0.03,0.058-0.044,0.096-0.044h0.89c0.032,0,0.064,0.014,0.096,0.044
	c0.032,0.028,0.048,0.059,0.048,0.091v4.037c0,0.364-0.066,0.703-0.201,1.018c-0.135,0.317-0.319,0.594-0.555,0.833
	s-0.515,0.427-0.837,0.565c-0.323,0.136-0.671,0.205-1.048,0.205s-0.726-0.069-1.048-0.205c-0.322-0.138-0.602-0.326-0.837-0.565
	s-0.421-0.516-0.554-0.833c-0.135-0.315-0.202-0.654-0.202-1.018V18.127z"/>
<path d="M148.104,23.982c-0.039-0.038-0.065-0.072-0.077-0.1c-0.013-0.029-0.003-0.072,0.028-0.129v0.009l0.345-0.603
	c0.031-0.052,0.074-0.081,0.125-0.091c0.049-0.009,0.092-0.001,0.123,0.025l0.021,0.009c0.038,0.033,0.117,0.085,0.239,0.159
	c0.122,0.073,0.261,0.148,0.421,0.225c0.158,0.076,0.326,0.143,0.498,0.201c0.171,0.057,0.331,0.086,0.479,0.086
	c0.267,0,0.489-0.079,0.663-0.234c0.176-0.157,0.264-0.347,0.264-0.569c0-0.255-0.106-0.479-0.315-0.67
	c-0.21-0.191-0.526-0.37-0.947-0.536c-0.225-0.089-0.445-0.195-0.66-0.317c-0.217-0.12-0.409-0.263-0.574-0.425
	c-0.167-0.163-0.3-0.351-0.402-0.565c-0.103-0.214-0.154-0.46-0.154-0.74c0-0.211,0.043-0.428,0.129-0.651
	c0.087-0.223,0.217-0.423,0.391-0.599c0.176-0.174,0.4-0.317,0.667-0.425c0.267-0.108,0.584-0.157,0.947-0.144
	c0.242,0.013,0.473,0.047,0.689,0.102c0.217,0.054,0.412,0.118,0.587,0.19c0.176,0.074,0.325,0.144,0.445,0.212
	c0.121,0.065,0.208,0.118,0.258,0.156c0.039,0.026,0.063,0.064,0.072,0.115c0.011,0.051,0.002,0.097-0.023,0.135
	c-0.058,0.089-0.119,0.182-0.186,0.277c-0.068,0.095-0.13,0.188-0.188,0.277c-0.033,0.052-0.073,0.089-0.122,0.115
	c-0.052,0.026-0.101,0.023-0.145-0.009c-0.02-0.013-0.079-0.049-0.182-0.11c-0.103-0.06-0.223-0.125-0.364-0.192
	c-0.141-0.066-0.292-0.127-0.455-0.182c-0.162-0.053-0.311-0.081-0.446-0.081c-0.146,0-0.276,0.022-0.387,0.068
	c-0.111,0.044-0.205,0.101-0.282,0.172c-0.076,0.07-0.135,0.148-0.173,0.234c-0.038,0.086-0.055,0.17-0.055,0.254
	c0,0.242,0.096,0.444,0.29,0.607c0.195,0.163,0.486,0.341,0.877,0.531c0.229,0.114,0.46,0.235,0.698,0.36
	c0.235,0.125,0.449,0.268,0.64,0.429c0.191,0.163,0.349,0.355,0.475,0.575c0.123,0.22,0.186,0.479,0.186,0.78
	c0,0.243-0.051,0.48-0.153,0.713c-0.102,0.232-0.247,0.439-0.436,0.617c-0.187,0.179-0.415,0.319-0.684,0.421
	c-0.269,0.103-0.57,0.144-0.908,0.125c-0.3-0.013-0.578-0.054-0.833-0.125c-0.254-0.069-0.481-0.148-0.675-0.233
	c-0.195-0.087-0.354-0.171-0.483-0.254c-0.127-0.083-0.214-0.146-0.258-0.192H148.104z"/>
<path d="M155.894,24.031c0-0.204,0.072-0.383,0.22-0.535c0.146-0.154,0.32-0.23,0.525-0.23c0.104,0,0.201,0.021,0.297,0.062
	c0.097,0.042,0.177,0.099,0.243,0.169c0.068,0.069,0.122,0.15,0.165,0.243c0.04,0.092,0.061,0.189,0.061,0.292
	c0,0.204-0.075,0.381-0.226,0.531c-0.149,0.15-0.329,0.225-0.54,0.225c-0.205,0-0.38-0.075-0.525-0.225
	C155.966,24.412,155.894,24.235,155.894,24.031z"/>
</svg>
